<?xml version="1.0" encoding="UTF-8"?>
<svg width="256px" height="62px" viewBox="0 0 256 62" version="1.1" xmlns="http://www.w3.org/2000/svg" xmlns:xlink="http://www.w3.org/1999/xlink">
    <!-- Generator: Sketch 47.1 (45422) - http://www.bohemiancoding.com/sketch -->
    <title>Pick a Gift</title>
    <desc>Created with Sketch.</desc>
    <defs>
        <linearGradient x1="50%" y1="76.3097426%" x2="50%" y2="0%" id="linearGradient-1">
            <stop stop-color="#E01010" offset="0%"></stop>
            <stop stop-color="#E010E0" offset="100%"></stop>
        </linearGradient>
    </defs>
    <g id="Page-1" stroke="none" stroke-width="1" fill="none" fill-rule="evenodd">
        <g id="Desktop-HD" transform="translate(-370.000000, -49.000000)" fill="url(#linearGradient-1)">
            <path d="M388.0625,55.3125 C393.062525,55.3125 397.234358,56.5520709 400.578125,59.03125 C403.921892,61.5104291 405.59375,64.4270666 405.59375,67.78125 C405.59375,71.9479375 404.26043,75.531235 401.59375,78.53125 C398.92707,81.531265 395.906267,83.03125 392.53125,83.03125 C391.447911,83.03125 390.473963,82.5885461 389.609375,81.703125 C388.744787,80.8177039 388.3125,79.8333387 388.3125,78.75 C388.3125,78.08333 388.880203,77.4427114 390.015625,76.828125 C391.151047,76.2135386 392.166662,75.90625 393.0625,75.90625 C394.000005,75.90625 394.46875,76.5312438 394.46875,77.78125 C394.46875,78.1354184 394.083337,78.64583 393.3125,79.3125 C393.229166,79.1874994 393.015627,78.8229197 392.671875,78.21875 C392.328123,77.6145803 391.937502,77.3125 391.5,77.3125 C390.562495,77.3125 390.09375,78.0624925 390.09375,79.5625 C390.09375,80.3125038 390.380205,80.9270809 390.953125,81.40625 C391.526045,81.8854191 392.229163,82.125 393.0625,82.125 C395.250011,82.125 397.171867,80.9375119 398.828125,78.5625 C400.484383,76.1874881 401.3125,73.3854328 401.3125,70.15625 C401.3125,66.3645644 400.197928,63.2395956 397.96875,60.78125 C395.739572,58.3229044 392.395856,56.9895844 387.9375,56.78125 C387.499998,61.3229394 387.28125,68.3645356 387.28125,77.90625 C387.28125,80.3854291 387.531248,83.7760202 388.03125,88.078125 C388.531252,92.3802298 388.8125,95.4062412 388.875,97.15625 L396.6875,97.8125 L396.25,99.65625 C393.958322,99.2604147 390.906269,98.9427095 387.09375,98.703125 C383.281231,98.4635405 380.291677,98.3749997 378.125,98.4375 L377.9375,96.59375 C379.791676,96.5729166 381.723948,96.6458325 383.734375,96.8125 C385.744802,96.9791675 386.927082,97.0312503 387.28125,96.96875 C387.156249,95.1145741 386.812503,92.1979366 386.25,88.21875 C384.937493,78.9687038 384.28125,70.8750347 384.28125,63.9375 C384.28125,60.0833141 384.322916,57.6770881 384.40625,56.71875 C381.239568,56.8437506 378.484387,57.57291 376.140625,58.90625 C373.796863,60.23959 372.625,61.8749903 372.625,63.8125 C372.625,64.7291712 373.026038,65.4635389 373.828125,66.015625 C374.630212,66.5677111 375.552078,66.84375 376.59375,66.84375 C379.156263,66.84375 380.4375,66.3750047 380.4375,65.4375 C380.4375,65.1874988 380.307293,64.9739592 380.046875,64.796875 C379.786457,64.6197908 379.510418,64.53125 379.21875,64.53125 C378.531247,64.53125 378.1875,64.9166628 378.1875,65.6875 C377.541663,65.5833328 377.21875,65.2083366 377.21875,64.5625 C377.21875,63.562495 377.822911,63.0625 379.03125,63.0625 C379.593753,63.0625 380.130206,63.2812478 380.640625,63.71875 C381.151044,64.1562522 381.40625,64.5937478 381.40625,65.03125 C381.40625,66.0937553 380.916672,66.9999963 379.9375,67.75 C378.958328,68.5000037 377.760424,68.875 376.34375,68.875 C374.822909,68.875 373.526047,68.4218795 372.453125,67.515625 C371.380203,66.6093705 370.84375,65.5104231 370.84375,64.21875 C370.84375,62.552075 371.81249,60.848967 373.75,59.109375 C375.68751,57.369783 379.260391,56.1458369 384.46875,55.4375 C384.46875,54.6041625 384.489583,52.4896003 384.53125,49.09375 C387.322931,49.3229178 388.906248,49.4375 389.28125,49.4375 C388.489579,52.7083497 388.083333,54.6666634 388.0625,55.3125 Z M418.3125,61.0625 L417.9375,61.125 C417.145829,59.8541603 415.968758,59.21875 414.40625,59.21875 C413.218744,59.21875 412.135422,59.5729131 411.15625,60.28125 C410.177078,60.9895869 409.6875,61.8124953 409.6875,62.75 C409.6875,63.8750056 410.104163,64.77083 410.9375,65.4375 C411.770837,66.10417 412.583329,66.4375 413.375,66.4375 C414.958341,66.4375 415.75,65.7395903 415.75,64.34375 C415.75,62.7604087 415.135423,61.96875 413.90625,61.96875 C413.677082,61.96875 413.427085,62.0572908 413.15625,62.234375 C412.885415,62.4114592 412.75,62.6249988 412.75,62.875 C412.75,63.3750025 413.05208,63.625 413.65625,63.625 C413.927085,63.625 414.260415,63.5000012 414.65625,63.25 C414.427082,64.3125053 413.937504,64.84375 413.1875,64.84375 C412.854165,64.84375 412.557293,64.6458353 412.296875,64.25 C412.036457,63.8541647 411.90625,63.5208347 411.90625,63.25 C411.90625,62.7291641 412.124998,62.2760436 412.5625,61.890625 C413.000002,61.5052064 413.531247,61.3125 414.15625,61.3125 C414.989587,61.3125 415.760413,61.5416644 416.46875,62 C417.177087,62.4583356 417.53125,63.1041625 417.53125,63.9375 C417.53125,64.8125044 417.088546,65.5572886 416.203125,66.171875 C415.317704,66.7864614 414.354172,67.09375 413.3125,67.09375 C412.083327,67.09375 411.010421,66.6666709 410.09375,65.8125 C409.177079,64.9583291 408.71875,63.8854231 408.71875,62.59375 C408.71875,61.2395766 409.197912,60.0416719 410.15625,59 C411.114588,57.9583281 412.145828,57.4375 413.25,57.4375 C416.020847,57.4375 417.70833,58.6458212 418.3125,61.0625 Z M420.5625,98.71875 C415.749976,98.71875 412.750006,98.7968742 411.5625,98.953125 C410.374994,99.1093758 409.343754,99.2812491 408.46875,99.46875 L408.46875,97.75 L412.5,97.625 C412.5,88.5832881 412.031255,79.9375413 411.09375,71.6875 L407.625,71.5625 L407.625,70.40625 C409.770844,70.4479169 411.260413,70.46875 412.09375,70.46875 C413.572924,70.46875 415.562487,70.0833372 418.0625,69.3125 L418.0625,70.75 L415.25,71.4375 L414.59375,81.5 L413.84375,97.375 C416.218762,97.375 418.458323,97.2395847 420.5625,96.96875 L420.5625,98.71875 Z M440.375,96.46875 C438.124989,97.0729197 436.270841,97.375 434.8125,97.375 C431.333316,97.375 428.395845,95.8437653 426,92.78125 C423.604155,89.7187347 422.40625,86.1458538 422.40625,82.0625 C422.40625,78.3124812 423.864569,74.9531398 426.78125,71.984375 C429.697931,69.0156102 433.020815,67.53125 436.75,67.53125 C438.458342,67.53125 440.197908,68.067703 441.96875,69.140625 C443.739592,70.213547 444.625,71.4895759 444.625,72.96875 C444.625,74.2187562 444.036464,75.4166609 442.859375,76.5625 C441.682286,77.7083391 440.42709,78.28125 439.09375,78.28125 C437.906244,78.28125 436.843755,77.9635448 435.90625,77.328125 C434.968745,76.6927052 434.5,75.8645884 434.5,74.84375 C434.5,73.8854119 434.80208,73.1406277 435.40625,72.609375 C436.01042,72.0781223 436.833328,71.8125 437.875,71.8125 C438.47917,71.8125 439.026039,71.9635402 439.515625,72.265625 C440.005211,72.5677098 440.25,72.9583309 440.25,73.4375 C440.25,73.7291681 440.057294,74.0260402 439.671875,74.328125 C439.286456,74.6302098 438.927085,74.78125 438.59375,74.78125 L438.21875,74.78125 C438.427084,74.0937466 438.53125,73.6458344 438.53125,73.4375 C438.53125,72.9166641 438.208337,72.65625 437.5625,72.65625 C437.187498,72.65625 436.859376,72.8749978 436.578125,73.3125 C436.296874,73.7500022 436.15625,74.1874978 436.15625,74.625 C436.15625,76.291675 436.927076,77.125 438.46875,77.125 C439.510422,77.125 440.359372,76.7447955 441.015625,75.984375 C441.671878,75.2239545 442,74.3020887 442,73.21875 C442,71.9270769 441.45313,70.8281295 440.359375,69.921875 C439.26562,69.0156205 438.041673,68.5625 436.6875,68.5625 C433.854152,68.5625 431.489593,70.0312353 429.59375,72.96875 C427.697907,75.9062647 426.75,79.0208169 426.75,82.3125 C426.75,85.9375181 427.489576,89.1926939 428.96875,92.078125 C430.447924,94.9635561 432.395821,96.40625 434.8125,96.40625 C436.708343,96.40625 438.114579,95.6145913 439.03125,94.03125 L440.375,96.46875 Z M472.40625,72.34375 L472.28125,73.28125 C470.614575,72.9687484 469.270838,72.4583369 468.25,71.75 C459.770791,77.9166975 455.135421,81.3124969 454.34375,81.9375 C455.989592,82.0625006 457.374994,82.4010389 458.5,82.953125 C459.625006,83.5052111 460.468747,84.1874959 461.03125,85 C461.593753,85.8125041 461.901041,86.5260386 461.953125,87.140625 C462.005209,87.7552114 462.03125,89.0729066 462.03125,91.09375 C462.03125,92.7395916 462.192707,93.9218714 462.515625,94.640625 C462.838543,95.3593786 463.359371,95.8958316 464.078125,96.25 C464.796879,96.6041684 465.562496,96.78125 466.375,96.78125 C467.64584,96.78125 468.666663,96.2864633 469.4375,95.296875 C470.208337,94.3072867 470.59375,93.2708387 470.59375,92.1875 C470.59375,90.6458256 469.770842,89.875 468.125,89.875 C467.583331,89.875 467.187501,89.9270828 466.9375,90.03125 C466.687499,90.1354172 466.5625,90.4062478 466.5625,90.84375 C466.5625,91.3437525 466.968746,91.59375 467.78125,91.59375 C467.927084,91.59375 468.130207,91.5416672 468.390625,91.4375 C468.651043,91.3333328 468.833333,91.28125 468.9375,91.28125 C469,91.4479175 469.03125,91.6145825 469.03125,91.78125 C469.03125,92.1562519 468.890626,92.473957 468.609375,92.734375 C468.328124,92.994793 467.968752,93.125 467.53125,93.125 C466.906247,93.125 466.432293,92.8906273 466.109375,92.421875 C465.786457,91.9531227 465.625,91.38542 465.625,90.71875 C465.625,90.1145803 466.010413,89.4479203 466.78125,88.71875 C467.552087,87.9895797 468.312496,87.625 469.0625,87.625 C469.937504,87.625 470.624998,88.0416625 471.125,88.875 C471.625002,89.7083375 471.875,90.6562447 471.875,91.71875 C471.875,93.7395934 471.17709,95.3333275 469.78125,96.5 C468.38541,97.6666725 466.489595,98.25 464.09375,98.25 C462.739577,98.25 461.588546,97.7239636 460.640625,96.671875 C459.692704,95.6197864 459.197917,94.5312556 459.15625,93.40625 C459.15625,91.8020753 458.85417,89.9010527 458.25,87.703125 C457.64583,85.5051973 455.833348,83.9270881 452.8125,82.96875 L451.15625,95.9375 L456.21875,96.21875 L455.9375,97.6875 C451.916647,97.1041637 448.27085,96.8645828 445,96.96875 L445.1875,95.5 L450.1875,95.6875 C450.562502,91.3124781 450.86979,83.6823461 451.109375,72.796875 C451.34896,61.9114039 451.46875,54.8645994 451.46875,51.65625 C450.406245,51.65625 448.937509,51.5520844 447.0625,51.34375 L447.1875,50.1875 C449.104176,50.3541675 451.333321,50.4375 453.875,50.4375 C456.770848,50.4375 459.062492,50.3333344 460.75,50.125 L460.75,51.03125 C458.68749,51.1145837 457.114589,51.2395825 456.03125,51.40625 C455.843749,55.5729375 454.875009,65.5624209 453.125,81.375 L466.25,70.75 C466.124999,70.6041659 465.630213,70.2083366 464.765625,69.5625 C463.901037,68.9166634 463.291668,68.3645856 462.9375,67.90625 L463.75,66.96875 C466.666681,69.7604306 469.552069,71.5520794 472.40625,72.34375 Z M502.53125,77.53125 C502.385416,78.3854209 501.895837,78.8125 501.0625,78.8125 C500.604164,78.8125 500.229168,78.6510433 499.9375,78.328125 C499.645832,78.0052067 499.5,77.5833359 499.5,77.0625 C499.5,76.4583303 499.765622,75.8906277 500.296875,75.359375 C500.828128,74.8281223 501.39583,74.5625 502,74.5625 C504.812514,74.5625 506.21875,75.3749919 506.21875,77 C506.21875,78.3541734 505.500007,79.5989527 504.0625,80.734375 C502.624993,81.8697973 501.385422,82.4375 500.34375,82.4375 C499.114577,82.4375 498.072921,82.0885452 497.21875,81.390625 C496.364579,80.6927048 495.9375,79.7604225 495.9375,78.59375 C495.9375,76.1770712 497.072905,73.7187625 499.34375,71.21875 C501.614595,68.7187375 503.979154,67.46875 506.4375,67.46875 C508.458343,67.46875 510.156243,68.338533 511.53125,70.078125 C512.906257,71.817717 513.59375,73.9583206 513.59375,76.5 C513.59375,78.3125091 513.338544,79.8645769 512.828125,81.15625 C512.317706,82.4479231 511.541672,83.9687412 510.5,85.71875 C507.83332,90.1354387 506.5,94.1874816 506.5,97.875 C506.5,98.2916687 506.520833,98.7187478 506.5625,99.15625 L505.28125,99.15625 L505.34375,95 C502.73957,96.7083419 500.864589,97.5625 499.71875,97.5625 C498.302076,97.5625 497.135421,97.1302127 496.21875,96.265625 C495.302079,95.4010373 494.84375,94.2708403 494.84375,92.875 C494.84375,91.5624934 495.526035,90.4010467 496.890625,89.390625 C498.255215,88.3802033 499.770825,87.875 501.4375,87.875 C502.625006,87.875 504.52082,87.7500012 507.125,87.5 C508.666674,84.1458166 509.4375,81.1562631 509.4375,78.53125 C509.4375,72.4895531 508.052097,69.46875 505.28125,69.46875 C502.739571,69.46875 500.916672,70.2864502 499.8125,71.921875 C498.708328,73.5572998 498.15625,75.8124856 498.15625,78.6875 C498.15625,79.4791706 498.390623,80.1562472 498.859375,80.71875 C499.328127,81.2812528 499.906247,81.5625 500.59375,81.5625 C501.447921,81.5625 502.260413,81.1666706 503.03125,80.375 C503.802087,79.5833294 504.1875,78.7187547 504.1875,77.78125 C504.1875,77.2604141 503.947919,76.8072936 503.46875,76.421875 C502.989581,76.0364564 502.458336,75.84375 501.875,75.84375 C501.624999,75.84375 501.401043,75.9687488 501.203125,76.21875 C501.005207,76.4687512 500.90625,76.7291653 500.90625,77 C500.90625,77.5208359 501.124998,77.78125 501.5625,77.78125 C501.916668,77.78125 502.239582,77.6979175 502.53125,77.53125 Z M506.6875,88.59375 C504.937491,88.6979172 503.526047,88.8385408 502.453125,89.015625 C501.380203,89.1927092 500.515628,89.6822877 499.859375,90.484375 C499.203122,91.2864623 498.875,92.1249956 498.875,93 C498.875,93.8333375 499.098956,94.5208306 499.546875,95.0625 C499.994794,95.6041694 500.58333,95.875 501.3125,95.875 C502.58334,95.875 504.010409,95.0729247 505.59375,93.46875 L506.6875,88.59375 Z M573.84375,83.15625 C572.552077,83.4062512 571.041675,83.5937494 569.3125,83.71875 C569.3125,86.38543 569.505206,89.6197727 569.890625,93.421875 C570.276044,97.2239773 570.46875,100.072907 570.46875,101.96875 C570.46875,104.260428 569.765632,106.229158 568.359375,107.875 C566.953118,109.520842 565.197927,110.34375 563.09375,110.34375 C561.656243,110.34375 560.244799,109.875005 558.859375,108.9375 C557.473951,107.999995 556.78125,106.937506 556.78125,105.75 C556.78125,104.604161 557.26562,103.526047 558.234375,102.515625 C559.20313,101.505203 560.291661,101 561.5,101 C562.395838,101 563.14583,101.296872 563.75,101.890625 C564.35417,102.484378 564.65625,103.08333 564.65625,103.6875 C564.65625,104.187503 564.421877,104.614582 563.953125,104.96875 C563.484373,105.322918 563.031252,105.5 562.59375,105.5 C561.86458,105.5 561.5,105.093754 561.5,104.28125 C561.812502,104.489584 562.093749,104.59375 562.34375,104.59375 C562.760419,104.59375 562.96875,104.250003 562.96875,103.5625 C562.96875,102.541662 562.520838,102.03125 561.625,102.03125 C561.166664,102.03125 560.75521,102.380205 560.390625,103.078125 C560.02604,103.776045 559.84375,104.468747 559.84375,105.15625 C559.84375,106.364589 560.151039,107.338538 560.765625,108.078125 C561.380211,108.817712 562.177078,109.1875 563.15625,109.1875 C564.885425,109.1875 566.302078,108.526048 567.40625,107.203125 C568.510422,105.880202 569.0625,104.479174 569.0625,103 C569.0625,101.583326 568.765628,99.7916775 568.171875,97.625 C567.578122,95.4583225 567.208334,93.875005 567.0625,92.875 C564.666655,96.8958534 561.10419,98.90625 556.375,98.90625 C551.416642,98.90625 546.96877,97.0937681 543.03125,93.46875 C539.09373,89.8437319 537.125,85.531275 537.125,80.53125 C537.125,74.2603853 538.947898,68.7239823 542.59375,63.921875 C546.239602,59.1197677 550.624974,56.71875 555.75,56.71875 C559.062517,56.71875 561.723948,57.5989495 563.734375,59.359375 C565.744802,61.1198005 566.75,62.9895734 566.75,64.96875 C566.75,66.9062597 565.911467,68.6302008 564.234375,70.140625 C562.557283,71.6510492 560.68751,72.40625 558.625,72.40625 C557.395827,72.40625 556.343754,71.9687544 555.46875,71.09375 C554.593746,70.2187456 554.15625,69.11459 554.15625,67.78125 C554.15625,66.8020784 554.546871,65.8645878 555.328125,64.96875 C556.109379,64.0729122 556.906246,63.625 557.71875,63.625 C558.32292,63.625 558.979163,63.9270803 559.6875,64.53125 C560.395837,65.1354197 560.75,65.6249981 560.75,66 C560.75,66.7708372 560.552085,67.4010392 560.15625,67.890625 C559.760415,68.3802108 559.291669,68.5833338 558.75,68.5 C558.875001,67.6041622 558.703127,66.9843767 558.234375,66.640625 C557.765623,66.2968733 557.343752,66.125 556.96875,66.125 C556.489581,66.125 556.104168,66.3697892 555.8125,66.859375 C555.520832,67.3489608 555.375,67.8541641 555.375,68.375 C555.375,68.7916688 555.703122,69.3749963 556.359375,70.125 C557.015628,70.8750038 557.770829,71.25 558.625,71.25 C560.083341,71.25 561.249996,70.6927139 562.125,69.578125 C563.000004,68.4635361 563.4375,66.9479262 563.4375,65.03125 C563.4375,63.0729069 562.703132,61.3697989 561.234375,59.921875 C559.765618,58.4739511 557.916678,57.75 555.6875,57.75 C551.374978,57.75 547.947929,59.6822723 545.40625,63.546875 C542.864571,67.4114777 541.59375,72.5833009 541.59375,79.0625 C541.59375,84.3750266 543.14061,88.7968573 546.234375,92.328125 C549.32814,95.8593927 553.093728,97.625 557.53125,97.625 C560.218763,97.625 562.265618,96.3333463 563.671875,93.75 C565.078132,91.1666538 565.78125,87.8646034 565.78125,83.84375 C564.281242,83.84375 561.614603,84.0833309 557.78125,84.5625 L557.78125,82.71875 C561.593769,82.5104156 564.369783,82.3750003 566.109375,82.3125 C567.848967,82.2499997 569.364577,82.1197927 570.65625,81.921875 C571.947923,81.7239573 573.010413,81.5104178 573.84375,81.28125 L573.84375,83.15625 Z M585.625,61.0625 L585.25,61.125 C584.458329,59.8541603 583.281258,59.21875 581.71875,59.21875 C580.531244,59.21875 579.447922,59.5729131 578.46875,60.28125 C577.489578,60.9895869 577,61.8124953 577,62.75 C577,63.8750056 577.416663,64.77083 578.25,65.4375 C579.083337,66.10417 579.895829,66.4375 580.6875,66.4375 C582.270841,66.4375 583.0625,65.7395903 583.0625,64.34375 C583.0625,62.7604087 582.447923,61.96875 581.21875,61.96875 C580.989582,61.96875 580.739585,62.0572908 580.46875,62.234375 C580.197915,62.4114592 580.0625,62.6249988 580.0625,62.875 C580.0625,63.3750025 580.36458,63.625 580.96875,63.625 C581.239585,63.625 581.572915,63.5000012 581.96875,63.25 C581.739582,64.3125053 581.250004,64.84375 580.5,64.84375 C580.166665,64.84375 579.869793,64.6458353 579.609375,64.25 C579.348957,63.8541647 579.21875,63.5208347 579.21875,63.25 C579.21875,62.7291641 579.437498,62.2760436 579.875,61.890625 C580.312502,61.5052064 580.843747,61.3125 581.46875,61.3125 C582.302087,61.3125 583.072913,61.5416644 583.78125,62 C584.489587,62.4583356 584.84375,63.1041625 584.84375,63.9375 C584.84375,64.8125044 584.401046,65.5572886 583.515625,66.171875 C582.630204,66.7864614 581.666672,67.09375 580.625,67.09375 C579.395827,67.09375 578.322921,66.6666709 577.40625,65.8125 C576.489579,64.9583291 576.03125,63.8854231 576.03125,62.59375 C576.03125,61.2395766 576.510412,60.0416719 577.46875,59 C578.427088,57.9583281 579.458328,57.4375 580.5625,57.4375 C583.333347,57.4375 585.02083,58.6458212 585.625,61.0625 Z M587.875,98.71875 C583.062476,98.71875 580.062506,98.7968742 578.875,98.953125 C577.687494,99.1093758 576.656254,99.2812491 575.78125,99.46875 L575.78125,97.75 L579.8125,97.625 C579.8125,88.5832881 579.343755,79.9375413 578.40625,71.6875 L574.9375,71.5625 L574.9375,70.40625 C577.083344,70.4479169 578.572913,70.46875 579.40625,70.46875 C580.885424,70.46875 582.874988,70.0833372 585.375,69.3125 L585.375,70.75 L582.5625,71.4375 L581.90625,81.5 L581.15625,97.375 C583.531262,97.375 585.770823,97.2395847 587.875,96.96875 L587.875,98.71875 Z M594.4375,78.75 C594.249999,77.4791603 593.598964,74.8489783 592.484375,70.859375 C591.369786,66.8697717 590.8125,63.9895922 590.8125,62.21875 C590.8125,59.4687363 591.838531,57.1198014 593.890625,55.171875 C595.942719,53.2239486 598.218737,52.25 600.71875,52.25 C602.71876,52.25 604.348952,52.8124944 605.609375,53.9375 C606.869798,55.0625056 607.5,56.6562397 607.5,58.71875 C607.5,59.718755 606.973964,60.7031202 605.921875,61.671875 C604.869786,62.6406298 603.687507,63.125 602.375,63.125 C599.999988,63.125 598.8125,62.0729272 598.8125,59.96875 C598.8125,59.4479141 599.124997,58.9479191 599.75,58.46875 C600.375003,57.9895809 600.937498,57.75 601.4375,57.75 C601.916669,57.75 602.374998,57.8958319 602.8125,58.1875 C603.250002,58.4791681 603.46875,58.8437478 603.46875,59.28125 C603.46875,59.4270841 603.375001,59.630207 603.1875,59.890625 C602.999999,60.151043 602.770835,60.3124997 602.5,60.375 C602.4375,59.1249938 602.125003,58.5 601.5625,58.5 C601.333332,58.5 601.104168,58.666665 600.875,59 C600.645832,59.333335 600.53125,59.7499975 600.53125,60.25 C600.53125,60.8333363 600.729165,61.3385395 601.125,61.765625 C601.520835,62.1927105 602.010414,62.40625 602.59375,62.40625 C603.32292,62.40625 603.953122,62.0312538 604.484375,61.28125 C605.015628,60.5312462 605.28125,59.6770881 605.28125,58.71875 C605.28125,57.0937419 604.843754,55.7135473 603.96875,54.578125 C603.093746,53.4427027 601.968757,52.875 600.59375,52.875 C599.093742,52.875 597.750006,53.6874919 596.5625,55.3125 C595.374994,56.9375081 594.78125,58.8958219 594.78125,61.1875 C594.78125,63.1458431 595.046872,66.1874794 595.578125,70.3125 C596.109378,74.4375206 596.416666,77.1562434 596.5,78.46875 C599.77085,78.3229159 602.864569,77.7708381 605.78125,76.8125 L605.84375,78.59375 C602.864568,79.1354194 599.812516,79.5624984 596.6875,79.875 C597.208336,86.4791997 597.46875,92.3958072 597.46875,97.625 C599.510427,97.3749988 601.364575,96.9687528 603.03125,96.40625 L603.21875,98 C601.364574,98.3125016 599.546884,98.5364577 597.765625,98.671875 C595.984366,98.8072923 594.135426,99.0520816 592.21875,99.40625 L592.21875,97.8125 L595.9375,97.6875 C595.9375,91.2499678 595.489588,85.4062763 594.59375,80.15625 L589.40625,80.84375 L589.40625,79.1875 L594.4375,78.75 Z M625.1875,67.90625 C623.479158,68.2187516 622.067714,68.4427077 620.953125,68.578125 C619.838536,68.7135423 618.218761,69.11458 616.09375,69.78125 C615.989583,71.11459 615.375006,74.3905989 614.25,79.609375 C613.124994,84.8281511 612.5625,88.3541575 612.5625,90.1875 C612.5625,92.5625119 613.04687,94.3854103 614.015625,95.65625 C614.98438,96.9270897 616.354158,97.5625 618.125,97.5625 C619.416673,97.5625 620.411455,96.9843808 621.109375,95.828125 C621.807295,94.6718692 622.15625,93.1770925 622.15625,91.34375 C622.15625,90.6354131 621.906252,89.9062538 621.40625,89.15625 C620.906248,88.4062463 620.35417,88.03125 619.75,88.03125 C619.208331,88.03125 618.770835,88.2916641 618.4375,88.8125 C618.104165,89.3333359 617.9375,89.9374966 617.9375,90.625 C617.9375,91.2291697 618.218747,91.53125 618.78125,91.53125 C619.343753,91.53125 619.749999,91.0833378 620,90.1875 L620.375,90.4375 C620.375,91.0833366 620.19271,91.6197895 619.828125,92.046875 C619.46354,92.4739605 619.072919,92.6875 618.65625,92.6875 C617.968747,92.6875 617.317711,92.4635439 616.703125,92.015625 C616.088539,91.5677061 615.78125,91.0000034 615.78125,90.3125 C615.78125,89.4166622 616.171871,88.6197952 616.953125,87.921875 C617.734379,87.2239548 618.572912,86.875 619.46875,86.875 C620.614589,86.875 621.755203,87.2708294 622.890625,88.0625 C624.026047,88.8541706 624.59375,89.6874956 624.59375,90.5625 C624.59375,92.5416766 623.989589,94.3697833 622.78125,96.046875 C621.572911,97.7239667 620.177091,98.5625 618.59375,98.5625 C616.177071,98.5625 614.250007,97.8072992 612.8125,96.296875 C611.374993,94.7864508 610.65625,92.7916791 610.65625,90.3125 C610.65625,89.0833272 610.901039,85.7760686 611.390625,80.390625 C611.880211,75.0051814 612.104167,71.8750044 612.0625,71 L606.28125,72.65625 L606.28125,70.9375 L612.0625,69.59375 C612.104167,68.9687469 612.125,68.2395875 612.125,67.40625 C612.125,64.9270709 611.947918,62.520845 611.59375,60.1875 L616.96875,59.28125 C617.03125,61.8854297 616.781253,64.8958162 616.21875,68.3125 C618.82293,67.4791625 620.583329,66.9739592 621.5,66.796875 C622.416671,66.6197908 623.489577,66.3541684 624.71875,66 L625.1875,67.90625 Z" id="Pick-a-Gift"></path>
        </g>
    </g>
</svg>